<svg xmlns="http://www.w3.org/2000/svg" viewBox="0 0 1240 320" role="img" aria-label="Aetas Workplace">
  <title>Aetas Workplace</title>
  <g transform="translate(10 10.0)">
<g fill="none" stroke-width="14" stroke-linecap="round">
  <circle cx="198" cy="197" r="92" stroke="#005357"/>
  <circle cx="152" cy="102" r="92" stroke="#ffffff"/>
  <circle cx="95" cy="193" r="92" stroke="#00aabb"/>
  <path d="M 157.25 279.48 A 92 92 0 0 1 131.49 260.57" stroke="#005357"/>
  <path d="M 136.62 128.47 A 92 92 0 0 1 163.77 111.61" stroke="#005357"/>
</g>
  </g>
  <g transform="translate(370 61.61605179942778) scale(0.129499)">
  <path d="M494 142H203L153 0H34L283 696H415L664 0H544ZM462 235 349 558 235 235Z" transform="translate(0.00 697) scale(1 -1)" fill="#ffffff"/>
  <path d="M189 603V399H429V306H189V93H459V0H75V696H459V603Z" transform="translate(767.00 697) scale(1 -1)" fill="#ffffff"/>
  <path d="M524 695V602H339V0H225V602H39V695Z" transform="translate(1361.00 697) scale(1 -1)" fill="#ffffff"/>
  <path d="M494 142H203L153 0H34L283 696H415L664 0H544ZM462 235 349 558 235 235Z" transform="translate(1995.00 697) scale(1 -1)" fill="#ffffff"/>
  <path d="M58 192H180Q184 147 215.5 118.0Q247 89 304 89Q363 89 396.0 117.5Q429 146 429 191Q429 226 408.5 248.0Q388 270 357.5 282.0Q327 294 273 308Q205 326 162.5 344.5Q120 363 90.0 402.0Q60 441 60 506Q60 566 90.0 611.0Q120 656 174.0 680.0Q228 704 299 704Q400 704 464.5 653.5Q529 603 536 515H410Q407 553 374.0 580.0Q341 607 287 607Q238 607 207.0 582.0Q176 557 176 510Q176 478 195.5 457.5Q215 437 245.0 425.0Q275 413 327 399Q396 380 439.5 361.0Q483 342 513.5 302.5Q544 263 544 197Q544 144 515.5 97.0Q487 50 432.5 21.5Q378 -7 304 -7Q234 -7 178.0 17.5Q122 42 90.0 87.0Q58 132 58 192Z" transform="translate(2762.00 697) scale(1 -1)" fill="#ffffff"/>
  </g>
  <g transform="translate(370 168.12344526426742) scale(0.129499)">
  <path d="M980 695 774 0H645L499 526L344 0L216 -1L19 695H140L284 129L440 695H568L713 132L858 695Z" transform="translate(0.00 697) scale(1 -1)" fill="#ffffff"/>
  <path d="M37 349Q37 451 84.5 532.0Q132 613 213.5 658.5Q295 704 392 704Q490 704 571.5 658.5Q653 613 700.0 532.0Q747 451 747 349Q747 247 700.0 165.5Q653 84 571.5 38.5Q490 -7 392 -7Q295 -7 213.5 38.5Q132 84 84.5 165.5Q37 247 37 349ZM630 349Q630 426 599.5 484.0Q569 542 515.0 573.0Q461 604 392 604Q323 604 269.0 573.0Q215 542 184.5 484.0Q154 426 154 349Q154 272 184.5 213.5Q215 155 269.0 123.5Q323 92 392 92Q461 92 515.0 123.5Q569 155 599.5 213.5Q630 272 630 349Z" transform="translate(1069.00 697) scale(1 -1)" fill="#ffffff"/>
  <path d="M436 0 276 278H189V0H75V695H315Q395 695 450.5 667.0Q506 639 533.5 592.0Q561 545 561 487Q561 419 521.5 363.5Q482 308 400 288L572 0ZM189 369H315Q379 369 411.5 401.0Q444 433 444 487Q444 541 412.0 571.5Q380 602 315 602H189Z" transform="translate(1923.00 697) scale(1 -1)" fill="#ffffff"/>
  <path d="M458 0 189 311V0H75V695H189V378L459 695H602L300 347L607 0Z" transform="translate(2625.00 697) scale(1 -1)" fill="#ffffff"/>
  <path d="M315 282H189V0H75V695H315Q395 695 450.5 667.5Q506 640 533.5 593.0Q561 546 561 488Q561 435 536.0 388.0Q511 341 456.0 311.5Q401 282 315 282ZM444 488Q444 602 315 602H189V375H315Q380 375 412.0 404.5Q444 434 444 488Z" transform="translate(3328.00 697) scale(1 -1)" fill="#ffffff"/>
  <path d="M189 92H424V0H75V695H189Z" transform="translate(3993.00 697) scale(1 -1)" fill="#ffffff"/>
  <path d="M494 142H203L153 0H34L283 696H415L664 0H544ZM462 235 349 558 235 235Z" transform="translate(4507.00 697) scale(1 -1)" fill="#ffffff"/>
  <path d="M392 704Q503 704 589.5 649.5Q676 595 715 495H578Q551 550 503.0 577.0Q455 604 392 604Q323 604 269.0 573.0Q215 542 184.5 484.0Q154 426 154 349Q154 272 184.5 214.0Q215 156 269.0 124.5Q323 93 392 93Q455 93 503.0 120.0Q551 147 578 202H715Q676 102 589.5 48.0Q503 -6 392 -6Q294 -6 213.0 39.5Q132 85 84.5 166.0Q37 247 37 349Q37 451 84.5 532.0Q132 613 213.5 658.5Q295 704 392 704Z" transform="translate(5274.00 697) scale(1 -1)" fill="#ffffff"/>
  <path d="M189 603V399H429V306H189V93H459V0H75V696H459V603Z" transform="translate(6117.00 697) scale(1 -1)" fill="#ffffff"/>
  </g>
</svg>
