<svg xmlns="http://www.w3.org/2000/svg" viewBox="0 0 789.3 170.0" role="img" aria-label="Aetas">
  <title>Aetas</title>
  <g transform="translate(10.00,10.00) scale(0.50000)">
    <g fill="none" stroke-width="14" stroke-linecap="round">
      <circle cx="198" cy="197" r="92" stroke="#005357"/>
      <circle cx="152" cy="102" r="92" stroke="#0d2c6c"/>
      <circle cx="95" cy="193" r="92" stroke="#00aabb"/>
      <path d="M 157.25 279.48 A 92 92 0 0 1 131.49 260.57" stroke="#005357"/>
      <path d="M 136.62 128.47 A 92 92 0 0 1 163.77 111.61" stroke="#005357"/>
    </g>
  </g>
  <g fill="#0d2c6c"><path transform="translate(200.00,144.00) scale(0.16738,-0.16738)" d="M499 124H237L195 0H16L270 702H468L722 0H541ZM455 256 368 513 282 256ZM1030 565V423H1259V291H1030V137H1289V0H859V702H1289V565ZM1965 702V565H1779V0H1608V565H1422V702ZM2548 124H2286L2244 0H2065L2319 702H2517L2771 0H2590ZM2504 256 2417 513 2331 256ZM2888 210H3070Q3074 171 3097.0 150.5Q3120 130 3157 130Q3195 130 3217.0 147.5Q3239 165 3239 196Q3239 222 3221.5 239.0Q3204 256 3178.5 267.0Q3153 278 3106 292Q3038 313 2995.0 334.0Q2952 355 2921.0 396.0Q2890 437 2890 503Q2890 601 2961.0 656.5Q3032 712 3146 712Q3262 712 3333.0 656.5Q3404 601 3409 502H3224Q3222 536 3199.0 555.5Q3176 575 3140 575Q3109 575 3090.0 558.5Q3071 542 3071 511Q3071 477 3103.0 458.0Q3135 439 3203 417Q3271 394 3313.5 373.0Q3356 352 3387.0 312.0Q3418 272 3418 209Q3418 149 3387.5 100.0Q3357 51 3299.0 22.0Q3241 -7 3162 -7Q3085 -7 3024.0 18.0Q2963 43 2926.5 92.0Q2890 141 2888 210Z"/></g>
</svg>